<svg width="31" height="19" viewBox="0 0 31 19" fill="none" xmlns="http://www.w3.org/2000/svg">
<path d="M21.1982 0C26.2942 0 30.4257 4.08188 30.4258 9.11719C30.4258 14.1526 26.2943 18.2344 21.1982 18.2344C18.9131 18.2343 16.8235 17.4122 15.2119 16.0527C13.6004 17.4119 11.5114 18.2344 9.22656 18.2344C4.13059 18.2343 0 14.1525 0 9.11719C0.000115862 4.08193 4.13066 9.18588e-05 9.22656 0C11.5113 0 13.6004 0.822608 15.2119 2.18164C16.8235 0.822248 18.9132 5.59475e-05 21.1982 0Z" fill="#ED0006"/>
<path d="M21.1982 0C26.2942 0 30.4257 4.08188 30.4258 9.11719C30.4258 14.1526 26.2943 18.2344 21.1982 18.2344C18.9134 18.2343 16.8244 17.4119 15.2129 16.0527C17.1954 14.3805 18.4541 11.8947 18.4541 9.11719C18.454 6.33965 17.1955 3.85388 15.2129 2.18164C16.8244 0.822535 18.9135 5.5998e-05 21.1982 0Z" fill="#F9A000"/>
<path d="M15.2119 2.18115C17.1948 3.85335 18.454 6.33894 18.4541 9.1167C18.4541 11.8947 17.195 14.3809 15.2119 16.0532C13.229 14.3809 11.9707 11.8945 11.9707 9.1167C11.9708 6.33906 13.2291 3.85335 15.2119 2.18115Z" fill="#FF5E00"/>
</svg>
