<svg width="48" height="14" viewBox="0 0 48 14" fill="none" xmlns="http://www.w3.org/2000/svg">
<path d="M42.4625 0H33.3506C33.8814 3.00783 36.8007 5.83874 39.9855 5.83874H47.2397C47.3282 5.57335 47.3282 5.13101 47.3282 4.86561C47.3282 2.21164 45.1165 0 42.4625 0Z" fill="url(#paint0_linear_156_105452)"/>
<path d="M34.1465 6.36963V13.7123H38.5698V9.81979H42.4623C44.5854 9.81979 46.4432 8.31587 47.0625 6.36963H34.1465Z" fill="#4FAD50"/>
<path d="M18.5771 0V13.6237H22.4697C22.4697 13.6237 23.4428 13.6237 23.9736 12.6506C26.6275 7.43112 27.4237 5.83874 27.4237 5.83874H27.9545V13.6237H32.3778V0H28.4853C28.4853 0 27.5122 0.0884711 26.9814 0.973128C24.7697 5.48488 23.5312 7.78499 23.5312 7.78499H23.0004V0H18.5771Z" fill="#4FAD50"/>
<path d="M0 13.7121V0.0883789H4.42329C4.42329 0.0883789 5.66182 0.0883762 6.36954 2.03462C8.13886 7.16563 8.3158 7.87336 8.3158 7.87336C8.3158 7.87336 8.66965 6.63484 10.262 2.03462C10.9698 0.0883762 12.2083 0.0883789 12.2083 0.0883789H16.6316V13.7121H12.2083V6.36945H11.6775L9.20046 13.7121H7.2542L4.77717 6.36945H4.24637V13.7121H0Z" fill="#4FAD50"/>
<defs>
<linearGradient id="paint0_linear_156_105452" x1="33.3348" y1="2.96122" x2="47.2968" y2="2.96122" gradientUnits="userSpaceOnUse">
<stop stop-color="#27B1E6"/>
<stop offset="1" stop-color="#148ACA"/>
</linearGradient>
</defs>
</svg>
