<svg width="48" height="48" viewBox="0 0 48 48" fill="none" xmlns="http://www.w3.org/2000/svg">
<path d="M28 44V36C28 34.9391 27.5786 33.9217 26.8284 33.1716C26.0783 32.4214 25.0609 32 24 32C22.9391 32 21.9217 32.4214 21.1716 33.1716C20.4214 33.9217 20 34.9391 20 36V44M36 20L44 24V40C44 41.0609 43.5786 42.0783 42.8284 42.8284C42.0783 43.5786 41.0609 44 40 44H8C6.93913 44 5.92172 43.5786 5.17157 42.8284C4.42143 42.0783 4 41.0609 4 40V24L12 20M36 10V44M8 12L24 4L40 12M12 10V44M28 18C28 20.2091 26.2091 22 24 22C21.7909 22 20 20.2091 20 18C20 15.7909 21.7909 14 24 14C26.2091 14 28 15.7909 28 18Z" stroke="#2A9D90" stroke-width="4" stroke-linecap="round" stroke-linejoin="round"/>
</svg>
