<svg width="56" height="19" viewBox="0 0 56 19" fill="none" xmlns="http://www.w3.org/2000/svg">
<path fill-rule="evenodd" clip-rule="evenodd" d="M13.8764 18.093H9.07297L5.47095 3.94694C5.29998 3.29622 4.93697 2.72095 4.40299 2.44981C3.07038 1.76844 1.60194 1.22618 0 0.952687V0.408063H7.73802C8.80598 0.408063 9.60695 1.22618 9.74044 2.17632L11.6094 12.3804L16.4105 0.408063H21.0805L13.8764 18.093ZM23.75 18.093H19.2135L22.949 0.408063H27.4855L23.75 18.093ZM33.3559 5.30714C33.4894 4.35464 34.2903 3.81001 35.2248 3.81001C36.6932 3.67327 38.2928 3.94676 39.6278 4.62577L40.4288 0.818115C39.0938 0.273491 37.6254 0 36.2928 0C31.8898 0 28.6859 2.44963 28.6859 5.84941C28.6859 8.43578 30.9553 9.79381 32.5572 10.6119C34.2903 11.4277 34.9578 11.9723 34.8243 12.7881C34.8243 14.0117 33.4894 14.5563 32.1568 14.5563C30.5548 14.5563 28.9529 14.1484 27.4868 13.4671L26.6858 17.2771C28.2878 17.9561 30.0208 18.2296 31.6228 18.2296C36.5598 18.364 39.6278 15.9167 39.6278 12.2434C39.6278 7.61767 33.3559 7.34653 33.3559 5.30714ZM55.5032 18.093L51.9012 0.408063H48.0322C47.2312 0.408063 46.4303 0.952687 46.1633 1.76844L39.4932 18.093H44.1632L45.0953 15.509H50.8333L51.3672 18.093H55.5032ZM48.6995 5.1707L50.0321 11.8359H46.2966L48.6995 5.1707Z" fill="#172B85"/>
</svg>
